# xmcd
# 
# Track frame offsets:
#     150
#     14054
#     27024
#     40226
#     54063
#     68268
#     80677
#     93816
#     105102
#     117941
#     134123
#     148017
#     162474
#     173399
# 
# Disc length: 2511
# 
# Revision: 0
# Processed by: cddbd v1.5.2PL0 Copyright (c) Steve Scherf et al.
# Submitted via: BonkEnc v1.0.15
# 
DISCID=a809cd0e
DTITLE=Various Artist - We've Got The Electric Thing! The Pioneers Of Electric Guitar 1938  - 1952
DYEAR=2002
DGENRE=Blues
TTITLE0=T-BONE WALKER - T-Bone Boogie
TTITLE1=T-BONE WALKER - Mean Old World Blues
TTITLE2=T-BONE WALKER - I'm Still In Love With You
TTITLE3=THE KANSAS CITY FIVE feat. EDDIE DURHAM - Laughing At Life
TTITLE4=ANDY KIRK AND HIS TWELVE CLOUDS OF JOY feat. FLOYD SMITH - Floy's Guitar Blues
TTITLE5=NAT KING COLE TRIO feat. OSCAR MOORE - This Side Up
TTITLE6=CHARLES BROWN feat. JOHNNY MOORE - Nutmeg
TTITLE7=HADDA BROOKS feat. TEDDY BUNN - Variety boogie
TTITLE8=BENNY GOODMAN AND HIS ORCHESTRA feat. CHARLIE CHRISTIAN - Solo Flight
TTITLE9=TINY GRIMES SEXTETTE - Tiny's Boogie Woogie No. 1
TTITLE10=DICKIE THOMPSON AND HIS BLUE FIVE - Swing Song
TTITLE11=JUMP JACKSON feat. LENARD "BABY DOO" CASTON - Homesick Blues
TTITLE12=ROY HAWKING feat. T-BONE WALKER - Highway 59
TTITLE13=B.B. KING - B.B.'s Boogie (alternate take)
EXTD=Blues and Soul Records No.46
EXTT0=
EXTT1=
EXTT2=
EXTT3=
EXTT4=
EXTT5=
EXTT6=
EXTT7=
EXTT8=
EXTT9=
EXTT10=
EXTT11=
EXTT12=
EXTT13=
PLAYORDER=
